<svg width="182" height="56" viewBox="0 0 182 56" fill="none" xmlns="http://www.w3.org/2000/svg">
<rect width="182" height="56" rx="6" fill="#101010"/>
<g clip-path="url(#clip0_648_9241)">
<path d="M28.8121 27.0693L12.149 44.6163C12.3362 45.2829 12.6724 45.8976 13.1321 46.4134C13.5919 46.9293 14.1628 47.3327 14.8014 47.5928C15.44 47.8529 16.1293 47.9628 16.8167 47.9142C17.504 47.8655 18.1712 47.6594 18.7671 47.3119L37.5163 36.5792L28.8121 27.0693Z" fill="#EA4335"/>
<path d="M45.6614 24.0866L37.5536 19.4189L28.4274 27.4684L37.5908 36.5539L45.6368 31.9363C46.3496 31.5611 46.9466 30.9971 47.3631 30.3052C47.7797 29.6133 47.9999 28.8201 47.9999 28.0114C47.9999 27.2027 47.7797 26.4094 47.3631 25.7176C46.9466 25.0257 46.3496 24.4616 45.6368 24.0865L45.6614 24.0866Z" fill="#FBBC04"/>
<path d="M12.1491 11.3193C12.0484 11.6936 11.9983 12.0798 12 12.4675V43.4677C12.001 43.8553 12.0511 44.2412 12.1491 44.616L29.3834 27.5183L12.1491 11.3193Z" fill="#4285F4"/>
<path d="M28.9363 27.9681L37.5535 19.4192L18.8293 8.63648C18.1248 8.2218 17.3236 8.00219 16.5072 8.00001C14.4812 7.99605 12.7 9.34757 12.149 11.3073L28.9363 27.9681Z" fill="#34A853"/>
</g>
<path d="M59.645 18.1C59.0017 18.1 58.4467 17.9533 57.98 17.66C57.5133 17.3667 57.1533 16.945 56.9 16.395C56.65 15.8417 56.525 15.1783 56.525 14.405C56.525 13.625 56.6533 12.9567 56.91 12.4C57.17 11.84 57.5383 11.4117 58.015 11.115C58.4917 10.8183 59.0517 10.67 59.695 10.67C60.0783 10.67 60.4333 10.735 60.76 10.865C61.09 10.995 61.38 11.1717 61.63 11.395C61.8833 11.6183 62.0833 11.8717 62.23 12.155C62.3767 12.4383 62.46 12.735 62.48 13.045H61.34C61.2933 12.7883 61.1933 12.5517 61.04 12.335C60.89 12.115 60.6983 11.9383 60.465 11.805C60.2317 11.6717 59.9683 11.605 59.675 11.605C59.285 11.605 58.94 11.7017 58.64 11.895C58.34 12.0883 58.105 12.39 57.935 12.8C57.7683 13.2067 57.685 13.7333 57.685 14.38C57.685 14.8833 57.7367 15.3117 57.84 15.665C57.9467 16.0183 58.0917 16.3033 58.275 16.52C58.4583 16.7367 58.6733 16.895 58.92 16.995C59.1667 17.0917 59.43 17.14 59.71 17.14C59.9867 17.14 60.23 17.0917 60.44 16.995C60.65 16.8983 60.825 16.7733 60.965 16.62C61.1083 16.4667 61.2183 16.3017 61.295 16.125C61.375 15.945 61.4217 15.7717 61.435 15.605L61.47 15.02H59.78V14.25L62.585 14.26V18H61.81V16.94C61.6833 17.1367 61.525 17.3233 61.335 17.5C61.145 17.6767 60.9117 17.8217 60.635 17.935C60.3583 18.045 60.0283 18.1 59.645 18.1ZM64.7173 18V10.77H69.3873L69.3823 11.7H65.7923V13.895H68.9973V14.81H65.7873V17.055L69.4723 17.06V18H64.7173ZM73.1381 18V11.745H70.8481V10.77H76.4031V11.745H74.2181V18H73.1381ZM80.722 18V10.77H81.792V18H80.722ZM85.6174 18V11.745H83.3274V10.77H88.8824V11.745H86.6974V18H85.6174ZM96.0063 18.1C95.3497 18.1 94.7813 17.955 94.3013 17.665C93.8247 17.3717 93.4563 16.95 93.1963 16.4C92.9397 15.8467 92.8113 15.18 92.8113 14.4C92.8113 13.6133 92.9413 12.9433 93.2013 12.39C93.4647 11.8333 93.8347 11.4083 94.3113 11.115C94.7913 10.8183 95.3563 10.67 96.0063 10.67C96.653 10.67 97.213 10.8183 97.6863 11.115C98.163 11.4083 98.5297 11.8333 98.7863 12.39C99.0463 12.9433 99.1763 13.6133 99.1763 14.4C99.1763 15.18 99.048 15.845 98.7913 16.395C98.5347 16.945 98.168 17.3667 97.6913 17.66C97.218 17.9533 96.6563 18.1 96.0063 18.1ZM96.0063 17.185C96.4263 17.185 96.7847 17.0883 97.0813 16.895C97.3813 16.7017 97.6097 16.4 97.7663 15.99C97.923 15.58 98.0013 15.055 98.0013 14.415C98.0013 13.7583 97.9213 13.2217 97.7613 12.805C97.6047 12.3883 97.3763 12.0817 97.0763 11.885C96.7797 11.685 96.423 11.585 96.0063 11.585C95.5897 11.585 95.2297 11.685 94.9263 11.885C94.6263 12.085 94.3947 12.3933 94.2313 12.81C94.068 13.2267 93.9863 13.7617 93.9863 14.415C93.9863 15.0583 94.068 15.585 94.2313 15.995C94.3947 16.4017 94.6263 16.7017 94.9263 16.895C95.2297 17.0883 95.5897 17.185 96.0063 17.185ZM101.013 18V10.77H102.048L105.728 16.16V10.77H106.803V18H105.843L102.083 12.495V18H101.013Z" fill="white"/>
<path d="M63.35 43.2C62.0567 43.2 60.9333 42.9033 59.98 42.31C59.0267 41.7167 58.2933 40.87 57.78 39.77C57.2667 38.6633 57.01 37.3433 57.01 35.81C57.01 34.2633 57.2767 32.93 57.81 31.81C58.3433 30.69 59.0933 29.8333 60.06 29.24C61.0333 28.64 62.1733 28.34 63.48 28.34C64.28 28.34 65.0167 28.4733 65.69 28.74C66.37 29.0067 66.9633 29.3667 67.47 29.82C67.9833 30.2733 68.3867 30.79 68.68 31.37C68.9733 31.95 69.1367 32.5533 69.17 33.18H66.6C66.5067 32.6867 66.3167 32.2333 66.03 31.82C65.75 31.4 65.3867 31.0633 64.94 30.81C64.5 30.5567 63.9967 30.43 63.43 30.43C62.7033 30.43 62.0533 30.6133 61.48 30.98C60.9133 31.3467 60.4667 31.9233 60.14 32.71C59.82 33.49 59.66 34.5033 59.66 35.75C59.66 36.7367 59.76 37.57 59.96 38.25C60.1667 38.9233 60.4467 39.4667 60.8 39.88C61.16 40.2867 61.5733 40.5833 62.04 40.77C62.5067 40.95 63 41.04 63.52 41.04C64.0267 41.04 64.4733 40.9533 64.86 40.78C65.2467 40.6067 65.5733 40.38 65.84 40.1C66.1133 39.82 66.3233 39.52 66.47 39.2C66.6233 38.8733 66.7133 38.5567 66.74 38.25L66.83 37.19H63.6V35.47L69.37 35.49V43H67.65V40.97C67.4033 41.3367 67.09 41.69 66.71 42.03C66.3367 42.37 65.8767 42.65 65.33 42.87C64.79 43.09 64.13 43.2 63.35 43.2ZM76.6614 43.2C75.6747 43.2 74.8147 42.99 74.0814 42.57C73.3481 42.1433 72.7781 41.5333 72.3714 40.74C71.9714 39.9467 71.7714 38.9933 71.7714 37.88C71.7714 36.8 71.9681 35.8533 72.3614 35.04C72.7547 34.2267 73.3147 33.5933 74.0414 33.14C74.7747 32.6867 75.6514 32.46 76.6714 32.46C77.6581 32.46 78.5147 32.6767 79.2414 33.11C79.9681 33.5433 80.5281 34.1633 80.9214 34.97C81.3214 35.7767 81.5214 36.7467 81.5214 37.88C81.5214 38.9267 81.3314 39.85 80.9514 40.65C80.5781 41.4433 80.0281 42.0667 79.3014 42.52C78.5814 42.9733 77.7014 43.2 76.6614 43.2ZM76.6714 41.35C77.2314 41.35 77.6914 41.1967 78.0514 40.89C78.4181 40.5833 78.6914 40.1633 78.8714 39.63C79.0514 39.0967 79.1414 38.49 79.1414 37.81C79.1414 37.1767 79.0614 36.5933 78.9014 36.06C78.7414 35.5267 78.4781 35.1 78.1114 34.78C77.7514 34.4533 77.2714 34.29 76.6714 34.29C76.1047 34.29 75.6347 34.44 75.2614 34.74C74.8947 35.0333 74.6214 35.4467 74.4414 35.98C74.2614 36.5067 74.1714 37.1167 74.1714 37.81C74.1714 38.4367 74.2514 39.02 74.4114 39.56C74.5714 40.0933 74.8347 40.5267 75.2014 40.86C75.5681 41.1867 76.0581 41.35 76.6714 41.35ZM88.0872 43.2C87.1005 43.2 86.2405 42.99 85.5072 42.57C84.7739 42.1433 84.2039 41.5333 83.7972 40.74C83.3972 39.9467 83.1972 38.9933 83.1972 37.88C83.1972 36.8 83.3939 35.8533 83.7872 35.04C84.1805 34.2267 84.7405 33.5933 85.4672 33.14C86.2005 32.6867 87.0772 32.46 88.0972 32.46C89.0839 32.46 89.9405 32.6767 90.6672 33.11C91.3939 33.5433 91.9539 34.1633 92.3472 34.97C92.7472 35.7767 92.9472 36.7467 92.9472 37.88C92.9472 38.9267 92.7572 39.85 92.3772 40.65C92.0039 41.4433 91.4539 42.0667 90.7272 42.52C90.0072 42.9733 89.1272 43.2 88.0872 43.2ZM88.0972 41.35C88.6572 41.35 89.1172 41.1967 89.4772 40.89C89.8439 40.5833 90.1172 40.1633 90.2972 39.63C90.4772 39.0967 90.5672 38.49 90.5672 37.81C90.5672 37.1767 90.4872 36.5933 90.3272 36.06C90.1672 35.5267 89.9039 35.1 89.5372 34.78C89.1772 34.4533 88.6972 34.29 88.0972 34.29C87.5305 34.29 87.0605 34.44 86.6872 34.74C86.3205 35.0333 86.0472 35.4467 85.8672 35.98C85.6872 36.5067 85.5972 37.1167 85.5972 37.81C85.5972 38.4367 85.6772 39.02 85.8372 39.56C85.9972 40.0933 86.2605 40.5267 86.6272 40.86C86.9939 41.1867 87.4839 41.35 88.0972 41.35ZM99.6753 46.42C97.9353 46.42 96.5986 46.1867 95.6653 45.72C94.732 45.2533 94.2653 44.6133 94.2653 43.8C94.2653 43.4333 94.3553 43.1267 94.5353 42.88C94.7153 42.6333 94.9286 42.43 95.1753 42.27C95.422 42.11 95.6486 41.9867 95.8553 41.9C96.062 41.8133 96.1953 41.75 96.2553 41.71C96.142 41.6433 95.992 41.5567 95.8053 41.45C95.6186 41.3433 95.4486 41.1967 95.2953 41.01C95.1486 40.8233 95.0753 40.58 95.0753 40.28C95.0753 39.9333 95.2386 39.6133 95.5653 39.32C95.8986 39.0267 96.3953 38.8167 97.0553 38.69C96.4086 38.3767 95.912 37.9533 95.5653 37.42C95.2186 36.8867 95.0453 36.3333 95.0453 35.76C95.0453 35.08 95.242 34.4967 95.6353 34.01C96.0353 33.5233 96.5886 33.15 97.2953 32.89C98.002 32.63 98.8253 32.5 99.7653 32.5C100.452 32.5 101.022 32.5767 101.475 32.73C101.935 32.8833 102.362 33.09 102.755 33.35C102.889 33.2967 103.075 33.2233 103.315 33.13C103.555 33.03 103.819 32.9233 104.105 32.81C104.392 32.69 104.669 32.5767 104.935 32.47C105.202 32.3567 105.425 32.2633 105.605 32.19L105.595 34.2L103.805 34.52C103.892 34.7133 103.959 34.9233 104.005 35.15C104.059 35.3767 104.085 35.5767 104.085 35.75C104.085 36.35 103.915 36.9067 103.575 37.42C103.242 37.9267 102.739 38.3333 102.065 38.64C101.399 38.9467 100.565 39.1 99.5653 39.1C99.4653 39.1 99.3286 39.0967 99.1553 39.09C98.982 39.0833 98.842 39.0767 98.7353 39.07C98.1953 39.09 97.8253 39.1533 97.6253 39.26C97.4253 39.3667 97.3253 39.4833 97.3253 39.61C97.3253 39.79 97.4753 39.91 97.7753 39.97C98.0753 40.03 98.5553 40.0833 99.2153 40.13C99.4486 40.1433 99.7553 40.16 100.135 40.18C100.515 40.2 100.939 40.2267 101.405 40.26C102.585 40.3333 103.479 40.63 104.085 41.15C104.692 41.6633 104.995 42.33 104.995 43.15C104.995 44.1033 104.555 44.8867 103.675 45.5C102.795 46.1133 101.462 46.42 99.6753 46.42ZM100.085 44.99C100.959 44.99 101.605 44.87 102.025 44.63C102.445 44.39 102.655 44.0367 102.655 43.57C102.655 43.21 102.512 42.9167 102.225 42.69C101.939 42.4633 101.512 42.33 100.945 42.29L98.3353 42.13C98.0486 42.11 97.7753 42.1633 97.5153 42.29C97.262 42.41 97.0553 42.58 96.8953 42.8C96.7353 43.0133 96.6553 43.25 96.6553 43.51C96.6553 43.9967 96.932 44.3633 97.4853 44.61C98.0453 44.8633 98.912 44.99 100.085 44.99ZM99.6453 37.67C100.279 37.67 100.792 37.51 101.185 37.19C101.579 36.8633 101.775 36.4033 101.775 35.81C101.775 35.1967 101.579 34.72 101.185 34.38C100.792 34.0333 100.279 33.86 99.6453 33.86C98.9986 33.86 98.4753 34.0333 98.0753 34.38C97.682 34.7267 97.4853 35.2033 97.4853 35.81C97.4853 36.3833 97.6753 36.8367 98.0553 37.17C98.4353 37.5033 98.9653 37.67 99.6453 37.67ZM110.575 43.15C109.908 43.15 109.375 43.0667 108.975 42.9C108.575 42.7333 108.275 42.51 108.075 42.23C107.875 41.95 107.745 41.6367 107.685 41.29C107.625 40.9367 107.595 40.5767 107.595 40.21V28.14H109.975V39.93C109.975 40.3767 110.065 40.7233 110.245 40.97C110.432 41.2167 110.732 41.36 111.145 41.4L111.665 41.42V42.95C111.485 43.0033 111.302 43.05 111.115 43.09C110.928 43.13 110.748 43.15 110.575 43.15ZM117.966 43.2C116.972 43.2 116.096 42.99 115.336 42.57C114.582 42.1433 113.992 41.5367 113.566 40.75C113.146 39.9633 112.936 39.0267 112.936 37.94C112.936 36.88 113.126 35.94 113.506 35.12C113.892 34.2933 114.449 33.6433 115.176 33.17C115.909 32.6967 116.792 32.46 117.826 32.46C118.846 32.46 119.702 32.6767 120.396 33.11C121.089 33.5433 121.616 34.15 121.976 34.93C122.336 35.7033 122.516 36.61 122.516 37.65V38.39H115.366C115.359 38.9767 115.452 39.4967 115.646 39.95C115.839 40.4033 116.126 40.76 116.506 41.02C116.886 41.2733 117.356 41.4 117.916 41.4C118.489 41.4 118.986 41.2733 119.406 41.02C119.832 40.76 120.116 40.3667 120.256 39.84H122.476C122.356 40.56 122.069 41.17 121.616 41.67C121.169 42.17 120.622 42.55 119.976 42.81C119.336 43.07 118.666 43.2 117.966 43.2ZM115.356 36.88H120.216C120.216 36.38 120.126 35.93 119.946 35.53C119.772 35.1233 119.509 34.8033 119.156 34.57C118.802 34.33 118.356 34.21 117.816 34.21C117.282 34.21 116.832 34.34 116.466 34.6C116.099 34.86 115.822 35.1967 115.636 35.61C115.449 36.0167 115.356 36.44 115.356 36.88ZM129.781 43V28.54H134.911C135.951 28.54 136.881 28.72 137.701 29.08C138.528 29.4333 139.178 29.9567 139.651 30.65C140.125 31.3433 140.361 32.1967 140.361 33.21C140.361 34.1633 140.145 34.98 139.711 35.66C139.285 36.34 138.688 36.86 137.921 37.22C137.155 37.58 136.258 37.76 135.231 37.76H132.251V43H129.781ZM132.231 35.81H135.171C136.018 35.81 136.708 35.5567 137.241 35.05C137.781 34.5433 138.051 33.8833 138.051 33.07C138.051 32.2433 137.771 31.6033 137.211 31.15C136.651 30.69 135.948 30.46 135.101 30.46H132.231V35.81ZM145.282 43.15C144.615 43.15 144.082 43.0667 143.682 42.9C143.282 42.7333 142.982 42.51 142.782 42.23C142.582 41.95 142.452 41.6367 142.392 41.29C142.332 40.9367 142.302 40.5767 142.302 40.21V28.14H144.682V39.93C144.682 40.3767 144.772 40.7233 144.952 40.97C145.139 41.2167 145.439 41.36 145.852 41.4L146.372 41.42V42.95C146.192 43.0033 146.009 43.05 145.822 43.09C145.635 43.13 145.455 43.15 145.282 43.15ZM151.542 43.2C150.882 43.2 150.289 43.08 149.762 42.84C149.242 42.5933 148.832 42.2433 148.532 41.79C148.239 41.33 148.092 40.7733 148.092 40.12C148.092 38.98 148.502 38.12 149.322 37.54C150.149 36.96 151.462 36.6567 153.262 36.63L154.812 36.59V35.89C154.812 35.3433 154.649 34.9167 154.322 34.61C154.002 34.2967 153.502 34.1433 152.822 34.15C152.315 34.1567 151.855 34.2767 151.442 34.51C151.029 34.7367 150.755 35.12 150.622 35.66H148.552C148.592 34.9533 148.795 34.3633 149.162 33.89C149.535 33.41 150.045 33.0533 150.692 32.82C151.339 32.58 152.085 32.46 152.932 32.46C153.919 32.46 154.722 32.59 155.342 32.85C155.962 33.11 156.419 33.4867 156.712 33.98C157.005 34.4667 157.152 35.0567 157.152 35.75V43H155.102L154.902 41.14C154.535 41.92 154.065 42.46 153.492 42.76C152.925 43.0533 152.275 43.2 151.542 43.2ZM152.332 41.55C152.632 41.55 152.929 41.4967 153.222 41.39C153.515 41.2767 153.779 41.1267 154.012 40.94C154.252 40.7467 154.442 40.5333 154.582 40.3C154.729 40.0667 154.805 39.8233 154.812 39.57V37.94L153.542 37.96C152.915 37.9667 152.365 38.0333 151.892 38.16C151.425 38.2867 151.062 38.49 150.802 38.77C150.542 39.0433 150.412 39.41 150.412 39.87C150.412 40.3967 150.595 40.81 150.962 41.11C151.329 41.4033 151.785 41.55 152.332 41.55ZM160.742 46.3C160.075 46.3 159.612 46.2467 159.352 46.14C159.092 46.04 158.962 45.99 158.962 45.99V44.43L160.002 44.46C160.422 44.48 160.762 44.4567 161.022 44.39C161.288 44.3233 161.495 44.23 161.642 44.11C161.788 43.9967 161.895 43.8733 161.962 43.74C162.035 43.6133 162.092 43.5033 162.132 43.41L162.402 42.65L158.372 32.66H160.792L163.542 39.97L166.282 32.66H168.662L164.402 43.38C164.082 44.16 163.735 44.76 163.362 45.18C162.995 45.6067 162.592 45.9 162.152 46.06C161.718 46.22 161.248 46.3 160.742 46.3Z" fill="white"/>
<defs>
<clipPath id="clip0_648_9241">
<rect width="36" height="40" fill="white" transform="translate(12 8)"/>
</clipPath>
</defs>
</svg>
