<svg width="160" height="56" viewBox="0 0 160 56" fill="none" xmlns="http://www.w3.org/2000/svg">
<rect width="160" height="56" rx="6" fill="#101010"/>
<g clip-path="url(#clip0_648_9250)">
<path d="M39.5603 29.2102C39.6173 35.2521 44.9409 37.2626 44.9998 37.2883C44.9547 37.43 44.1491 40.1534 42.1952 42.9665C40.506 45.3986 38.7527 47.8217 35.9909 47.8719C33.2774 47.9211 32.4047 46.2867 29.3022 46.2867C26.2006 46.2867 25.2311 47.8217 22.6623 47.9211C19.9965 48.0206 17.9665 45.2913 16.2634 42.8681C12.7829 37.9115 10.1232 28.8617 13.6945 22.753C15.4687 19.7194 18.6394 17.7985 22.0806 17.7492C24.6983 17.7001 27.1692 19.4841 28.7695 19.4841C30.3687 19.4841 33.3713 17.3387 36.5278 17.6537C37.8491 17.7079 41.5585 18.1794 43.9403 21.6138C43.7482 21.731 39.5143 24.1591 39.5603 29.2103M34.4604 14.3745C35.8758 12.6869 36.8283 10.3377 36.5684 8C34.5283 8.08076 32.0616 9.33917 30.5983 11.0258C29.2869 12.5195 28.1385 14.9101 28.4484 17.2014C30.7223 17.3747 33.045 16.0631 34.4604 14.3745Z" fill="white"/>
</g>
<path d="M53.915 18V10.77C53.9417 10.77 54.02 10.7717 54.15 10.775C54.2833 10.775 54.4433 10.775 54.63 10.775C54.8167 10.7717 55.0067 10.7717 55.2 10.775C55.3967 10.775 55.5717 10.7767 55.725 10.78C56.6083 10.7933 57.3267 10.94 57.88 11.22C58.4333 11.5 58.8383 11.9033 59.095 12.43C59.355 12.9533 59.485 13.5917 59.485 14.345C59.485 15.1283 59.3467 15.7933 59.07 16.34C58.7933 16.8833 58.37 17.2967 57.8 17.58C57.2333 17.86 56.515 18 55.645 18H53.915ZM55.005 17.1H55.655C56.2017 17.1 56.6767 17.0117 57.08 16.835C57.4867 16.655 57.8017 16.365 58.025 15.965C58.2483 15.5617 58.36 15.0233 58.36 14.35C58.36 13.69 58.2533 13.165 58.04 12.775C57.8267 12.3817 57.52 12.1 57.12 11.93C56.7233 11.7567 56.245 11.67 55.685 11.67H55.005V17.1ZM64.122 18.1C63.4653 18.1 62.897 17.955 62.417 17.665C61.9403 17.3717 61.572 16.95 61.312 16.4C61.0553 15.8467 60.927 15.18 60.927 14.4C60.927 13.6133 61.057 12.9433 61.317 12.39C61.5803 11.8333 61.9503 11.4083 62.427 11.115C62.907 10.8183 63.472 10.67 64.122 10.67C64.7686 10.67 65.3286 10.8183 65.802 11.115C66.2786 11.4083 66.6453 11.8333 66.902 12.39C67.162 12.9433 67.292 13.6133 67.292 14.4C67.292 15.18 67.1636 15.845 66.907 16.395C66.6503 16.945 66.2836 17.3667 65.807 17.66C65.3336 17.9533 64.772 18.1 64.122 18.1ZM64.122 17.185C64.542 17.185 64.9003 17.0883 65.197 16.895C65.497 16.7017 65.7253 16.4 65.882 15.99C66.0386 15.58 66.117 15.055 66.117 14.415C66.117 13.7583 66.037 13.2217 65.877 12.805C65.7203 12.3883 65.492 12.0817 65.192 11.885C64.8953 11.685 64.5386 11.585 64.122 11.585C63.7053 11.585 63.3453 11.685 63.042 11.885C62.742 12.085 62.5103 12.3933 62.347 12.81C62.1836 13.2267 62.102 13.7617 62.102 14.415C62.102 15.0583 62.1836 15.585 62.347 15.995C62.5103 16.4017 62.742 16.7017 63.042 16.895C63.3453 17.0883 63.7053 17.185 64.122 17.185ZM70.3338 18L68.2388 10.77H69.3088L70.8388 16.26L72.3888 10.77H73.2088L74.7588 16.26L76.3088 10.77H77.3738L75.2588 18H74.3188L72.7938 12.635L71.2488 18H70.3338ZM78.9041 18V10.77H79.9391L83.6191 16.16V10.77H84.6941V18H83.7341L79.9741 12.495V18H78.9041ZM86.9212 18L86.9262 10.77H88.0112V17.06H91.3512V18H86.9212ZM95.7024 18.1C95.0458 18.1 94.4774 17.955 93.9974 17.665C93.5208 17.3717 93.1524 16.95 92.8924 16.4C92.6358 15.8467 92.5074 15.18 92.5074 14.4C92.5074 13.6133 92.6374 12.9433 92.8974 12.39C93.1608 11.8333 93.5308 11.4083 94.0074 11.115C94.4874 10.8183 95.0524 10.67 95.7024 10.67C96.3491 10.67 96.9091 10.8183 97.3824 11.115C97.8591 11.4083 98.2258 11.8333 98.4824 12.39C98.7424 12.9433 98.8724 13.6133 98.8724 14.4C98.8724 15.18 98.7441 15.845 98.4874 16.395C98.2308 16.945 97.8641 17.3667 97.3874 17.66C96.9141 17.9533 96.3524 18.1 95.7024 18.1ZM95.7024 17.185C96.1224 17.185 96.4808 17.0883 96.7774 16.895C97.0774 16.7017 97.3058 16.4 97.4624 15.99C97.6191 15.58 97.6974 15.055 97.6974 14.415C97.6974 13.7583 97.6174 13.2217 97.4574 12.805C97.3008 12.3883 97.0724 12.0817 96.7724 11.885C96.4758 11.685 96.1191 11.585 95.7024 11.585C95.2858 11.585 94.9258 11.685 94.6224 11.885C94.3224 12.085 94.0908 12.3933 93.9274 12.81C93.7641 13.2267 93.6824 13.7617 93.6824 14.415C93.6824 15.0583 93.7641 15.585 93.9274 15.995C94.0908 16.4017 94.3224 16.7017 94.6224 16.895C94.9258 17.0883 95.2858 17.185 95.7024 17.185ZM99.818 18L102.428 10.77H103.608L106.213 18H105.133L104.453 16.105H101.588L100.903 18H99.818ZM101.853 15.135H104.173L103.013 11.81L101.853 15.135ZM107.906 18V10.77C107.933 10.77 108.011 10.7717 108.141 10.775C108.275 10.775 108.435 10.775 108.621 10.775C108.808 10.7717 108.998 10.7717 109.191 10.775C109.388 10.775 109.563 10.7767 109.716 10.78C110.6 10.7933 111.318 10.94 111.871 11.22C112.425 11.5 112.83 11.9033 113.086 12.43C113.346 12.9533 113.476 13.5917 113.476 14.345C113.476 15.1283 113.338 15.7933 113.061 16.34C112.785 16.8833 112.361 17.2967 111.791 17.58C111.225 17.86 110.506 18 109.636 18H107.906ZM108.996 17.1H109.646C110.193 17.1 110.668 17.0117 111.071 16.835C111.478 16.655 111.793 16.365 112.016 15.965C112.24 15.5617 112.351 15.0233 112.351 14.35C112.351 13.69 112.245 13.165 112.031 12.775C111.818 12.3817 111.511 12.1 111.111 11.93C110.715 11.7567 110.236 11.67 109.676 11.67H108.996V17.1ZM120.896 18.1C120.24 18.1 119.671 17.955 119.191 17.665C118.715 17.3717 118.346 16.95 118.086 16.4C117.83 15.8467 117.701 15.18 117.701 14.4C117.701 13.6133 117.831 12.9433 118.091 12.39C118.355 11.8333 118.725 11.4083 119.201 11.115C119.681 10.8183 120.246 10.67 120.896 10.67C121.543 10.67 122.103 10.8183 122.576 11.115C123.053 11.4083 123.42 11.8333 123.676 12.39C123.936 12.9433 124.066 13.6133 124.066 14.4C124.066 15.18 123.938 15.845 123.681 16.395C123.425 16.945 123.058 17.3667 122.581 17.66C122.108 17.9533 121.546 18.1 120.896 18.1ZM120.896 17.185C121.316 17.185 121.675 17.0883 121.971 16.895C122.271 16.7017 122.5 16.4 122.656 15.99C122.813 15.58 122.891 15.055 122.891 14.415C122.891 13.7583 122.811 13.2217 122.651 12.805C122.495 12.3883 122.266 12.0817 121.966 11.885C121.67 11.685 121.313 11.585 120.896 11.585C120.48 11.585 120.12 11.685 119.816 11.885C119.516 12.085 119.285 12.3933 119.121 12.81C118.958 13.2267 118.876 13.7617 118.876 14.415C118.876 15.0583 118.958 15.585 119.121 15.995C119.285 16.4017 119.516 16.7017 119.816 16.895C120.12 17.0883 120.48 17.185 120.896 17.185ZM125.903 18V10.77H126.938L130.618 16.16V10.77H131.693V18H130.733L126.973 12.495V18H125.903Z" fill="white"/>
<path d="M53.68 43L58.87 28.54H61.51L66.7 43H64.26L62.97 39.37H57.43L56.13 43H53.68ZM58.01 37.21H62.36L60.19 30.9L58.01 37.21ZM68.755 46.22V32.66H71.185L71.205 34.29C71.3383 34.0633 71.5083 33.84 71.715 33.62C71.9283 33.4 72.1717 33.2033 72.445 33.03C72.725 32.8567 73.035 32.72 73.375 32.62C73.715 32.5133 74.0883 32.46 74.495 32.46C75.2883 32.46 75.9917 32.65 76.605 33.03C77.2183 33.4033 77.6983 33.98 78.045 34.76C78.3983 35.54 78.575 36.5267 78.575 37.72C78.575 38.94 78.395 39.9567 78.035 40.77C77.675 41.5833 77.1717 42.1933 76.525 42.6C75.8783 43 75.1283 43.2 74.275 43.2C73.8817 43.2 73.5217 43.1467 73.195 43.04C72.875 42.9333 72.5883 42.7867 72.335 42.6C72.0817 42.4133 71.8583 42.21 71.665 41.99C71.4783 41.77 71.3217 41.54 71.195 41.3V46.22H68.755ZM73.735 41.38C74.4683 41.38 75.075 41.09 75.555 40.51C76.035 39.9233 76.275 39.0067 76.275 37.76C76.275 36.68 76.0483 35.83 75.595 35.21C75.1483 34.5833 74.5283 34.27 73.735 34.27C72.8817 34.27 72.2417 34.6 71.815 35.26C71.3883 35.9133 71.175 36.7467 71.175 37.76C71.175 38.4133 71.2683 39.0167 71.455 39.57C71.6483 40.1167 71.9317 40.5567 72.305 40.89C72.685 41.2167 73.1617 41.38 73.735 41.38ZM80.7863 46.22V32.66H83.2163L83.2363 34.29C83.3696 34.0633 83.5396 33.84 83.7463 33.62C83.9596 33.4 84.2029 33.2033 84.4763 33.03C84.7563 32.8567 85.0663 32.72 85.4063 32.62C85.7463 32.5133 86.1196 32.46 86.5263 32.46C87.3196 32.46 88.0229 32.65 88.6363 33.03C89.2496 33.4033 89.7296 33.98 90.0763 34.76C90.4296 35.54 90.6063 36.5267 90.6063 37.72C90.6063 38.94 90.4263 39.9567 90.0663 40.77C89.7063 41.5833 89.2029 42.1933 88.5563 42.6C87.9096 43 87.1596 43.2 86.3063 43.2C85.9129 43.2 85.5529 43.1467 85.2263 43.04C84.9063 42.9333 84.6196 42.7867 84.3663 42.6C84.1129 42.4133 83.8896 42.21 83.6963 41.99C83.5096 41.77 83.3529 41.54 83.2263 41.3V46.22H80.7863ZM85.7663 41.38C86.4996 41.38 87.1063 41.09 87.5863 40.51C88.0663 39.9233 88.3063 39.0067 88.3063 37.76C88.3063 36.68 88.0796 35.83 87.6263 35.21C87.1796 34.5833 86.5596 34.27 85.7663 34.27C84.9129 34.27 84.2729 34.6 83.8463 35.26C83.4196 35.9133 83.2063 36.7467 83.2063 37.76C83.2063 38.4133 83.2996 39.0167 83.4863 39.57C83.6796 40.1167 83.9629 40.5567 84.3363 40.89C84.7163 41.2167 85.1929 41.38 85.7663 41.38ZM102.948 43.2C102.228 43.2 101.538 43.1133 100.878 42.94C100.218 42.76 99.6145 42.4967 99.0678 42.15C98.5278 41.7967 98.0811 41.36 97.7278 40.84C97.3745 40.3133 97.1578 39.7 97.0778 39H99.5978C99.7045 39.4867 99.9145 39.8967 100.228 40.23C100.548 40.5633 100.951 40.8167 101.438 40.99C101.924 41.1633 102.468 41.25 103.068 41.25C103.601 41.25 104.098 41.17 104.558 41.01C105.018 40.85 105.391 40.6133 105.678 40.3C105.964 39.98 106.108 39.5867 106.108 39.12C106.108 38.5933 105.921 38.1833 105.548 37.89C105.181 37.59 104.654 37.3533 103.968 37.18L101.138 36.51C100.404 36.3433 99.7645 36.1 99.2178 35.78C98.6778 35.46 98.2578 35.04 97.9578 34.52C97.6578 33.9933 97.5078 33.35 97.5078 32.59C97.5078 31.7233 97.7445 30.9733 98.2178 30.34C98.6978 29.7067 99.3478 29.22 100.168 28.88C100.988 28.5333 101.911 28.36 102.938 28.36C104.111 28.36 105.101 28.5567 105.908 28.95C106.714 29.3367 107.328 29.8567 107.748 30.51C108.168 31.1633 108.381 31.88 108.388 32.66H105.928C105.874 32.08 105.704 31.6233 105.418 31.29C105.131 30.95 104.768 30.7033 104.328 30.55C103.888 30.3967 103.401 30.32 102.868 30.32C101.921 30.32 101.218 30.5233 100.758 30.93C100.298 31.3367 100.068 31.8133 100.068 32.36C100.068 32.8733 100.238 33.28 100.578 33.58C100.918 33.88 101.438 34.1133 102.138 34.28L104.828 34.91C105.728 35.0967 106.451 35.3833 106.998 35.77C107.544 36.1567 107.941 36.6167 108.188 37.15C108.441 37.6767 108.568 38.26 108.568 38.9C108.568 39.74 108.328 40.4833 107.848 41.13C107.374 41.7767 106.718 42.2833 105.878 42.65C105.038 43.0167 104.061 43.2 102.948 43.2ZM114.819 43.08C113.999 43.08 113.362 42.9733 112.909 42.76C112.462 42.54 112.152 42.23 111.979 41.83C111.806 41.43 111.719 40.9533 111.719 40.4V34.38H110.039V32.66H111.789L112.399 29.59H114.149V32.65H116.459V34.38H114.149L114.159 40.31C114.159 40.6167 114.192 40.8433 114.259 40.99C114.332 41.13 114.446 41.2233 114.599 41.27C114.759 41.31 114.969 41.33 115.229 41.33H116.509V42.87C116.369 42.9233 116.162 42.97 115.889 43.01C115.622 43.0567 115.266 43.08 114.819 43.08ZM122.802 43.2C121.815 43.2 120.955 42.99 120.222 42.57C119.489 42.1433 118.919 41.5333 118.512 40.74C118.112 39.9467 117.912 38.9933 117.912 37.88C117.912 36.8 118.109 35.8533 118.502 35.04C118.895 34.2267 119.455 33.5933 120.182 33.14C120.915 32.6867 121.792 32.46 122.812 32.46C123.799 32.46 124.655 32.6767 125.382 33.11C126.109 33.5433 126.669 34.1633 127.062 34.97C127.462 35.7767 127.662 36.7467 127.662 37.88C127.662 38.9267 127.472 39.85 127.092 40.65C126.719 41.4433 126.169 42.0667 125.442 42.52C124.722 42.9733 123.842 43.2 122.802 43.2ZM122.812 41.35C123.372 41.35 123.832 41.1967 124.192 40.89C124.559 40.5833 124.832 40.1633 125.012 39.63C125.192 39.0967 125.282 38.49 125.282 37.81C125.282 37.1767 125.202 36.5933 125.042 36.06C124.882 35.5267 124.619 35.1 124.252 34.78C123.892 34.4533 123.412 34.29 122.812 34.29C122.245 34.29 121.775 34.44 121.402 34.74C121.035 35.0333 120.762 35.4467 120.582 35.98C120.402 36.5067 120.312 37.1167 120.312 37.81C120.312 38.4367 120.392 39.02 120.552 39.56C120.712 40.0933 120.975 40.5267 121.342 40.86C121.709 41.1867 122.199 41.35 122.812 41.35ZM129.888 43V32.66H132.218V34.9C132.384 34.3867 132.621 33.95 132.928 33.59C133.241 33.2233 133.608 32.9433 134.028 32.75C134.448 32.5567 134.904 32.46 135.398 32.46C135.518 32.46 135.634 32.4667 135.748 32.48C135.861 32.4933 135.944 32.5167 135.998 32.55V34.88C135.924 34.8467 135.828 34.8233 135.708 34.81C135.594 34.7967 135.494 34.79 135.408 34.79C134.908 34.75 134.464 34.77 134.078 34.85C133.698 34.93 133.374 35.0667 133.108 35.26C132.848 35.4467 132.651 35.6867 132.518 35.98C132.384 36.2667 132.318 36.6033 132.318 36.99V43H129.888ZM142.427 43.2C141.433 43.2 140.557 42.99 139.797 42.57C139.043 42.1433 138.453 41.5367 138.027 40.75C137.607 39.9633 137.397 39.0267 137.397 37.94C137.397 36.88 137.587 35.94 137.967 35.12C138.353 34.2933 138.91 33.6433 139.637 33.17C140.37 32.6967 141.253 32.46 142.287 32.46C143.307 32.46 144.163 32.6767 144.857 33.11C145.55 33.5433 146.077 34.15 146.437 34.93C146.797 35.7033 146.977 36.61 146.977 37.65V38.39H139.827C139.82 38.9767 139.913 39.4967 140.107 39.95C140.3 40.4033 140.587 40.76 140.967 41.02C141.347 41.2733 141.817 41.4 142.377 41.4C142.95 41.4 143.447 41.2733 143.867 41.02C144.293 40.76 144.577 40.3667 144.717 39.84H146.937C146.817 40.56 146.53 41.17 146.077 41.67C145.63 42.17 145.083 42.55 144.437 42.81C143.797 43.07 143.127 43.2 142.427 43.2ZM139.817 36.88H144.677C144.677 36.38 144.587 35.93 144.407 35.53C144.233 35.1233 143.97 34.8033 143.617 34.57C143.263 34.33 142.817 34.21 142.277 34.21C141.743 34.21 141.293 34.34 140.927 34.6C140.56 34.86 140.283 35.1967 140.097 35.61C139.91 36.0167 139.817 36.44 139.817 36.88Z" fill="white"/>
<defs>
<clipPath id="clip0_648_9250">
<rect width="33" height="40" fill="white" transform="translate(12 8)"/>
</clipPath>
</defs>
</svg>
